<svg preserveAspectRatio="none" overflow="visible" style="display: block;" width="20" height="20" viewBox="0 0 20 20" fill="none" xmlns="http://www.w3.org/2000/svg">
<g id="Icon / Network/Aptos">
<path id="Vector" d="M10 18.75C14.8325 18.75 18.75 14.8325 18.75 10C18.75 5.16751 14.8325 1.25 10 1.25C5.16751 1.25 1.25 5.16751 1.25 10C1.25 14.8325 5.16751 18.75 10 18.75Z" fill="#050505"/>
<path id="Vector_2" d="M5.625 12.8125C6.625 10.8125 8.0625 9.25 9.9375 8.125C10.125 8 10.3125 8 10.5 8.125C11.3125 8.6875 12 9.375 12.5625 10.1875C12.6875 10.375 12.6875 10.5 12.5 10.625C11.5 11.25 10.6875 12 10 12.9375C9.875 13.125 9.6875 13.1875 9.5 13.0625C8.6875 12.625 7.8125 12.4375 6.875 12.5C6.4375 12.5 6 12.625 5.625 12.8125Z" fill="white"/>
<path id="Vector_3" d="M14.375 7.1875C13.375 9.1875 11.9375 10.75 10.0625 11.875C9.875 12 9.6875 12 9.5 11.875C8.6875 11.3125 8 10.625 7.4375 9.8125C7.3125 9.625 7.3125 9.5 7.5 9.375C8.5 8.75 9.3125 8 10 7.0625C10.125 6.875 10.3125 6.8125 10.5 6.9375C11.3125 7.375 12.1875 7.5625 13.125 7.5C13.5625 7.5 14 7.375 14.375 7.1875Z" fill="white"/>
</g>
</svg>
